<?xml version="1.0" encoding="UTF-8"?>
<svg xmlns="http://www.w3.org/2000/svg" xmlns:xlink="http://www.w3.org/1999/xlink" width="55px" height="50px" viewBox="0 0 55 50" version="1.1">
<g id="surface1">
<path style=" stroke:none;fill-rule:nonzero;fill:rgb(0%,0%,0%);fill-opacity:1;" d="M 35.21875 0.570312 C 33.601562 1.320312 32.523438 2.921875 32.523438 4.59375 C 32.523438 5.636719 32.703125 6.078125 33.40625 6.851562 C 34.410156 7.96875 35.433594 8.15625 37.054688 7.527344 C 39.023438 6.777344 40.121094 5.269531 40.121094 3.304688 C 40.121094 2.054688 39.707031 1.210938 38.808594 0.605469 C 38.019531 0.0546875 36.367188 0.0351562 35.21875 0.570312 "/>
<path style=" stroke:none;fill-rule:nonzero;fill:rgb(0%,0%,0%);fill-opacity:1;" d="M 47.425781 3.929688 C 45.828125 4.496094 43.929688 5.546875 41.683594 7.089844 C 40.640625 7.808594 38.902344 9 37.785156 9.769531 C 34.789062 11.84375 32.742188 12.488281 31.578125 11.699219 C 31.253906 11.476562 31.019531 11.074219 30.804688 10.320312 C 30.03125 7.621094 28.882812 5.878906 27.355469 5.140625 C 26.242188 4.59375 24.003906 4.464844 20.839844 4.777344 C 16.621094 5.160156 14.394531 5.710938 12.921875 6.703125 C 11.738281 7.515625 11.773438 8.707031 13.015625 9.4375 C 14.59375 10.355469 17.179688 10.523438 20.769531 9.917969 C 24.109375 9.367188 25.328125 9.457031 26.421875 10.414062 C 27.246094 11.113281 27.644531 12.082031 27.878906 13.976562 C 28.074219 15.519531 28.144531 15.757812 28.664062 16.289062 C 29.40625 17.039062 30.480469 17.320312 32.203125 17.226562 C 33.332031 17.152344 33.820312 17.027344 35.09375 16.402344 C 38.84375 14.5625 44.683594 9.695312 47.410156 6.152344 C 49.277344 3.726562 49.277344 3.25 47.425781 3.929688 M 28.488281 18.402344 C 27.679688 18.84375 27.320312 19.339844 27.320312 19.980469 C 27.320312 21.523438 29.148438 23.140625 33.601562 25.527344 C 35.902344 26.738281 36.082031 26.941406 35.867188 27.839844 C 35.722656 28.414062 33.929688 30.339844 31.683594 32.359375 L 29.851562 33.980469 L 24.734375 33.9375 L 19.597656 33.882812 L 21.628906 32.324219 C 24.121094 30.414062 26.945312 27.566406 27.464844 26.429688 C 28.253906 24.777344 27.804688 23.726562 26.421875 23.964844 C 24.664062 24.277344 20.929688 26.484375 13.964844 31.386719 L 10.285156 33.980469 L 5.507812 34.011719 L 0.753906 34.066406 L 0.699219 41.929688 L 0.660156 49.769531 L 54.246094 49.769531 L 54.246094 33.980469 L 35.164062 33.980469 L 36.796875 32.726562 C 39.097656 31 41.234375 28.945312 41.789062 28.007812 C 42.1875 27.292969 42.222656 27.128906 42.058594 26.484375 C 41.539062 24.535156 38.558594 22.074219 34.105469 19.925781 C 32.222656 19.027344 29.890625 18.183594 29.257812 18.183594 C 29.027344 18.183594 28.683594 18.292969 28.488281 18.402344 M 9.101562 37.90625 C 9.726562 38.179688 9.726562 38.179688 9.726562 39.375 C 9.726562 40.054688 9.691406 40.585938 9.636719 40.585938 C 9.601562 40.585938 9.261719 40.386719 8.902344 40.132812 C 8.148438 39.597656 7.808594 39.558594 6.945312 39.925781 C 6.210938 40.238281 5.777344 41.027344 5.777344 42.074219 C 5.777344 42.679688 5.886719 42.9375 6.386719 43.453125 C 7.160156 44.242188 8.09375 44.296875 9.082031 43.617188 L 9.746094 43.160156 L 9.691406 44.5 L 9.636719 45.820312 L 8.617188 46.078125 C 7.054688 46.480469 5.8125 46.152344 4.683594 44.996094 C 2.027344 42.28125 3.820312 37.667969 7.539062 37.648438 C 8.058594 37.648438 8.757812 37.777344 9.101562 37.90625 M 16.640625 38.089844 C 18.273438 38.878906 19.0625 40.144531 19.0625 42 C 19.0625 43.910156 17.988281 45.398438 16.136719 46.023438 C 13.425781 46.941406 10.445312 44.8125 10.445312 41.964844 C 10.445312 38.789062 13.785156 36.714844 16.640625 38.089844 M 24.324219 40.238281 L 26.066406 42.644531 L 26.066406 37.8125 L 27.195312 37.871094 L 28.308594 37.925781 L 28.308594 46.003906 L 27.230469 46.058594 L 26.136719 46.113281 L 24.539062 43.875 C 23.636719 42.644531 22.851562 41.488281 22.742188 41.304688 C 22.617188 41.0625 22.5625 41.726562 22.5625 43.492188 L 22.5625 46.003906 L 21.449219 46.058594 L 20.320312 46.113281 L 20.320312 37.832031 L 22.582031 37.832031 Z M 35.902344 41.746094 C 36.636719 43.875 37.226562 45.710938 37.25 45.820312 C 37.265625 45.933594 36.78125 46.023438 36.171875 46.058594 L 35.058594 46.113281 L 34.839844 45.359375 L 34.628906 44.628906 L 31.648438 44.628906 L 31.21875 46.097656 L 30.050781 46.097656 C 29.207031 46.097656 28.917969 46.042969 28.972656 45.859375 C 29.007812 45.75 29.632812 43.875 30.375 41.726562 L 31.683594 37.832031 L 34.59375 37.832031 Z M 42.488281 38.039062 C 43.550781 38.308594 44.628906 39.285156 45.019531 40.3125 C 45.46875 41.542969 45.289062 43.324219 44.605469 44.316406 C 43.746094 45.585938 42.777344 45.949219 40.15625 46.058594 L 37.914062 46.152344 L 37.914062 37.832031 L 39.816406 37.832031 C 40.859375 37.832031 42.058594 37.925781 42.488281 38.039062 M 51.523438 38.769531 L 51.464844 39.726562 L 50.140625 39.742188 L 48.808594 39.761719 L 48.789062 40.367188 L 48.773438 40.957031 L 51.394531 40.957031 L 51.289062 42.867188 L 50.085938 42.808594 L 48.859375 42.773438 L 48.859375 44.078125 L 51.558594 44.078125 L 51.558594 46.097656 L 46.53125 46.097656 L 46.53125 37.832031 L 51.574219 37.832031 Z M 51.523438 38.769531 "/>
<path style=" stroke:none;fill-rule:nonzero;fill:rgb(0%,0%,0%);fill-opacity:1;" d="M 13.855469 39.90625 C 13.335938 40.1875 12.777344 41.195312 12.777344 41.929688 C 12.777344 44.003906 15.023438 45.015625 16.265625 43.507812 C 16.640625 43.046875 16.730469 42.753906 16.730469 41.929688 C 16.730469 41.027344 16.65625 40.84375 16.117188 40.292969 C 15.457031 39.613281 14.683594 39.488281 13.855469 39.90625 M 32.6875 41.15625 L 32.242188 42.699219 L 32.742188 42.753906 C 33.027344 42.792969 33.441406 42.792969 33.65625 42.753906 L 34.070312 42.699219 L 33.136719 39.613281 Z M 40.246094 41.984375 L 40.246094 44.132812 L 41.089844 44.003906 C 42.203125 43.855469 42.777344 43.289062 42.886719 42.203125 C 43.046875 40.71875 42.3125 39.851562 40.859375 39.851562 L 40.246094 39.851562 Z M 40.246094 41.984375 "/>
</g>
</svg>
